# xmcd
#
# Track frame offsets:
# 150
# 14401
# 26593
# 35915
# 48414
# 64450
# 76504
# 88223
# 101316
# 114936
# 130708
# 148085
# 159033
# 173686
# 188501
# 203001
#
# Disc length: 2881 seconds
#
#
# Revision: 0
# Processed by: cddbd v1.5.1PL2 Copyright (c) Steve Scherf et al.
# Submitted via: FreeRIP 2.944 
#
DISCID=c50b3f10
DTITLE=Nat "King" Cole - Unforgetable
DYEAR=1900
DGENRE=Jazz
TTITLE0=On The Street Ehere You Live
TTITLE1=Autumm Leaves
TTITLE2=After The Ball Is Over
TTITLE3=Fascination
TTITLE4=Fly Me To The Moon
TTITLE5=Love Is Many Splendored Thing
TTITLE6=L-O-V-E
TTITLE7=Nature Boy
TTITLE8=Tenderly
TTITLE9=The More I See You
TTITLE10=The Very Thought Of You
TTITLE11=Those Lazy Hazy Crazy Days Of Summer
TTITLE12=Too Young
TTITLE13=twilight Time
TTITLE14=When I Fall In Love
TTITLE15=Smile
EXTD=
EXTT0=
EXTT1=
EXTT2=
EXTT3=
EXTT4=
EXTT5=
EXTT6=
EXTT7=
EXTT8=
EXTT9=
EXTT10=
EXTT11=
EXTT12=
EXTT13=
EXTT14=
EXTT15=
PLAYORDER=
